<svg width="400" height="400" viewBox="0 0 400 400" fill="none" xmlns="http://www.w3.org/2000/svg">
  <path d="M200 80C180 80 165 90 155 100L140 120L145 105C150 95 145 85 135 80C125 75 115 75 105 85L90 100C85 105 80 115 80 125C80 130 82 135 85 138L95 145C100 150 110 150 115 145L120 140C125 135 135 135 140 140C145 145 145 155 140 160L130 170C125 175 120 185 120 195V210C120 220 125 230 135 235L150 245C155 248 160 250 165 250H235C240 250 245 248 250 245L265 235C275 230 280 220 280 210V195C280 185 275 175 270 170L260 160C255 155 255 145 260 140C265 135 275 135 280 140L285 145C290 150 300 150 305 145L315 138C318 135 320 130 320 125C320 115 315 105 310 100L295 85C285 75 275 75 265 80C255 85 250 95 255 105L260 120L245 100C235 90 220 80 200 80Z" fill="currentColor"/>
  <path d="M165 125L175 115C180 110 190 110 195 115L205 125C210 130 210 140 205 145L195 155C190 160 180 160 175 155L165 145C160 140 160 130 165 125Z" fill="currentColor"/>
  <path d="M235 125L245 115C250 110 260 110 265 115L275 125C280 130 280 140 275 145L265 155C260 160 250 160 245 155L235 145C230 140 230 130 235 125Z" fill="currentColor"/>
  <path d="M200 180C210 180 220 185 225 195C230 205 230 215 225 225L215 240C210 245 200 245 195 240C190 235 185 225 185 215C185 195 190 180 200 180Z" fill="currentColor"/>
  <path d="M180 200C175 205 175 215 180 220L200 235L220 220C225 215 225 205 220 200C215 195 205 195 200 200C195 195 185 195 180 200Z" fill="currentColor"/>
  <path d="M140 270L155 260C165 255 175 260 175 270L180 295C180 305 175 315 165 315H135C125 315 120 305 120 295V280C120 275 125 270 130 268L140 270Z" fill="currentColor"/>
  <path d="M260 270L245 260C235 255 225 260 225 270L220 295C220 305 225 315 235 315H265C275 315 280 305 280 295V280C280 275 275 270 270 268L260 270Z" fill="currentColor"/>
  <path d="M150 150L135 165C130 170 130 180 135 185L145 195C145 195 145 195 150 195C155 195 160 190 160 185V170C160 160 155 155 150 150Z" fill="currentColor"/>
  <path d="M250 150L265 165C270 170 270 180 265 185L255 195C255 195 255 195 250 195C245 195 240 190 240 185V170C240 160 245 155 250 150Z" fill="currentColor"/>
  <path d="M200 240C195 240 190 245 190 250V270C190 275 195 280 200 280C205 280 210 275 210 270V250C210 245 205 240 200 240Z" fill="currentColor"/>
</svg>
